<svg preserveAspectRatio="none" width="100%" height="100%" overflow="visible" style="display: block;" viewBox="0 0 203.122 203.146" fill="none" xmlns="http://www.w3.org/2000/svg">
<g id="Simbolo ftt">
<path id="Vector" d="M90.1131 0.495644C51.9866 5.79801 21.2665 29.1957 7.2952 63.6191C0.73037 79.6103 -1.7104 101.409 1.23536 117.989C6.28523 147.026 22.024 171.181 46.2634 186.92C55.9423 193.232 65.6212 197.357 77.4884 200.555C93.0604 203.57 102.008 203.122 102.008 203.122C102.008 203.122 114.088 203.524 124.2 200.976C144.568 195.842 158.623 188.014 173.099 173.538C188.586 158.052 196.834 142.818 201.294 121.44C204.745 104.776 203.23 82.7244 197.423 67.4065C184.546 33.0673 155.593 8.49126 120.244 1.7581C111.491 0.0748049 97.2671 -0.514331 90.1131 0.495644ZM122.601 27.0075C149.365 33.8248 171.332 55.7076 178.654 82.9769C181.095 92.3192 181.347 112.266 179.075 120.851C172.678 144.838 158.118 162.765 136.824 173.033C126.893 177.746 121.086 179.43 110.481 180.524C82.9591 183.385 55.9423 171.35 39.446 148.878C34.1437 141.64 29.0096 130.782 26.8214 122.029C24.1281 111.34 24.1281 93.245 26.9055 83.0611C32.8812 60.7575 47.1892 43.0829 67.4728 32.8148C84.5582 24.23 103.664 22.2101 122.601 27.0075Z" fill="var(--fill-0, #870000)" fill-opacity="0.6"/>
<path id="Vector_2" d="M83.0282 114.406C83.0282 114.406 83.0282 114.406 83.1647 135.088C83.3012 155.771 83.3012 155.771 83.3012 155.771C98.4303 164.413 83.3012 155.771 98.4303 164.413C98.4303 164.413 98.4303 164.413 99.0195 123.808C83.0282 114.406 99.0195 123.808 83.0282 114.406Z" fill="var(--fill-0, #870000)" fill-opacity="0.6"/>
<path id="Vector_3" d="M54.9436 58.094C47.9579 62.5039 54.9436 58.094 47.9579 62.5039C82.9703 82.4734 47.9579 62.5039 82.9703 82.4734C98.4566 73.9864 82.9703 82.4734 98.4566 73.9864C62.3387 53.2792 98.4566 73.9864 62.3387 53.2792C54.9436 58.094 62.4083 53.2599 54.9436 58.094Z" fill="var(--fill-0, #870000)" fill-opacity="0.6"/>
<path id="Vector_4" d="M41.65 78.4876V87.1411L59.577 97.3754C69.3401 102.95 83.2272 110.855 90.3812 114.932C97.451 118.926 103.427 122.254 103.679 122.254C103.848 122.254 103.848 118.26 103.763 113.351L103.511 104.448L92.9903 98.5403C87.183 95.2953 73.4642 87.4739 62.4386 81.2334C51.4972 74.9929 42.2391 69.8342 42.0708 69.8342C41.8183 69.8342 41.65 73.7448 41.65 78.4876Z" fill="var(--fill-0, #870000)" fill-opacity="0.6"/>
<path id="Vector_5" d="M138.664 56.207L107.999 73.5335C107.999 73.5335 85.112 87.0277 85.112 87.3606L92.6447 91.4377L100.177 95.5148C101.103 95.5148 160.517 61.0012 160.517 61.0012C160.517 61.0012 160.517 61.0012 145.451 51.9317C145.451 51.9317 145.451 51.9317 138.664 56.207Z" fill="var(--fill-0, #870000)" fill-opacity="0.6"/>
<path id="Vector_6" d="M145.662 80.9985L128.408 91.3151C128.408 91.3151 128.408 94.574 128.408 94.8957C128.408 95.2174 128.492 108.54 128.492 108.54C128.492 108.54 128.492 108.54 164.178 87.3631C164.178 70.3481 164.178 87.4886 164.178 78.9183C164.178 69.5659 164.178 87.3631 164.178 69.5659C128.408 91.5657 164.178 69.5659 145.662 80.9985Z" fill="var(--fill-0, #870000)" fill-opacity="0.6"/>
<path id="Vector_7" d="M108.655 96.6866C108.655 111.009 108.655 129.547 108.655 132.493C108.655 151.381 108.655 150.397 108.655 166.51C117.709 161.139 108.655 166.51 117.709 161.139L123.779 157.3L123.779 123.434C123.779 104.297 123.779 91.1197 123.779 87.2796C108.655 96.6866 123.779 87.2796 108.655 96.6866Z" fill="var(--fill-0, #870000)" fill-opacity="0.6"/>
</g>
</svg>
